<svg xmlns="http://www.w3.org/2000/svg" xmlns:xlink="http://www.w3.org/1999/xlink" version="1.1" x="0px" y="0px" viewBox="0 0 100 100" enable-background="new 0 0 100 100" xml:space="preserve"><path d="M36.049,47.172c0.648-0.634,1.291-1.27,1.925-1.896c1.059-1.045,2.139-2.108,3.235-3.167  c-5.359-5.048-11.276-9.155-18.262-9.155H8.025v6.547h14.921C27.002,39.501,31.395,42.83,36.049,47.172z"></path><path d="M75.591,52.522v8.11c0,0-9.18,0-10.94,0c-4.378,0-8.56-3.339-12.907-7.696c-0.374,0.395-0.749,0.794-1.124,1.19  c-1.147,1.22-2.323,2.46-3.526,3.692c5.619,5.101,11.504,9.278,17.558,9.278c1.678,0,10.94,0,10.94,0v8.11l8.189-5.672l8.194-5.671  l-8.194-5.671L75.591,52.522z"></path><path d="M83.78,30.463l-8.189-5.671v8.11c0,0-9.263,0-10.94,0c-15.567,0-30.021,27.595-41.704,27.595H8.025v6.548h14.921  c18.144,0,29.093-27.678,41.704-27.678c1.761,0,10.94,0,10.94,0v8.11l8.189-5.671l8.194-5.671L83.78,30.463z"></path></svg>